<svg xmlns="http://www.w3.org/2000/svg" version="1.1" xmlns:xlink="http://www.w3.org/1999/xlink" xmlns:svgjs="http://svgjs.com/svgjs" width="32.987576mm" height="33.657795mm"><svg width="32.987576mm" height="33.657795mm" viewBox="0 0 32.987576 33.657795" version="1.1" id="SvgjsSvg1012" inkscape:version="1.1.2 (1:1.1+202202050950+0a00cf5339)" sodipodi:docname="blob.svg" xmlns:inkscape="http://www.inkscape.org/namespaces/inkscape" xmlns:sodipodi="http://sodipodi.sourceforge.net/DTD/sodipodi-0.dtd" xmlns="http://www.w3.org/2000/svg" xmlns:svg="http://www.w3.org/2000/svg">
  <sodipodi:namedview id="SvgjsSodipodi:namedview1011" pagecolor="#ffffff" bordercolor="#666666" borderopacity="1.0" inkscape:pageshadow="2" inkscape:pageopacity="0.0" inkscape:pagecheckerboard="0" inkscape:document-units="mm" showgrid="false" fit-margin-left="1" fit-margin-right="1" fit-margin-top="0" fit-margin-bottom="0" inkscape:zoom="0.66368547" inkscape:cx="180.80854" inkscape:cy="408.32595" inkscape:window-width="1920" inkscape:window-height="984" inkscape:window-x="0" inkscape:window-y="37" inkscape:window-maximized="1" inkscape:current-layer="layer1"></sodipodi:namedview>
  <defs id="SvgjsDefs1010"></defs>
  <g inkscape:label="Layer 1" inkscape:groupmode="layer" id="SvgjsG1009" transform="translate(-29.856451,-40.272958)">
    <g id="SvgjsG1008" transform="matrix(0.26458333,0,0,0.26458333,19.54031,31.376531)">
      <svg width="200" height="200" version="1.1" id="SvgjsSvg1007">
        <path stroke="#000900" stroke-width="2" d="m 156.38673,100 c 0.0317,12.08941 5.49716,27.47557 0.14272,36.32927 -5.35444,8.8537 -21.41477,12.88092 -32.26936,16.79291 -10.8546,3.912 -21.48619,7.07503 -32.858213,6.67908 C 80.02985,159.40531 63.792419,158.01272 56.027932,150.74647 48.263444,143.48023 46.482864,127.30318 44.81495,116.20379 43.147036,105.10441 43.42118,94.465581 46.020448,84.150173 48.619716,73.834766 52.980092,62.562356 60.410558,54.311348 67.841024,46.06034 80.268927,35.210214 90.603244,34.644124 c 10.334316,-0.56609 20.857166,11.41257 31.813216,16.270683 10.95604,4.858113 28.26133,4.697131 33.92304,12.877996 5.66171,8.180866 0.0156,24.117786 0.0472,36.207197 0.0317,12.08941 5.49716,27.47557 0.14272,36.32927" fill="#f6fff6" id="SvgjsPath1006" data-darkreader-inline-fill="" data-darkreader-inline-stroke="" style="--darkreader-inline-fill:#0e3800; --darkreader-inline-stroke:#e5e3e0;"></path>
        <g transform="translate(83,100)" id="SvgjsG1005">
          <circle stroke="#000900" stroke-width="2" cx="0" cy="0" r="17" fill="#ffffff" id="SvgjsCircle1004" data-darkreader-inline-fill="" data-darkreader-inline-stroke="" style="--darkreader-inline-fill:#181a1b; --darkreader-inline-stroke:#e5e3e0;"></circle>
          <circle stroke-width="2" cx="0" cy="0" r="8" fill="#000900" id="SvgjsCircle1003" data-darkreader-inline-fill="" style="--darkreader-inline-fill:#e5e3e0;"></circle>
        </g>
        <g transform="translate(117,100)" id="SvgjsG1002">
          <circle stroke="#000900" stroke-width="2" cx="0" cy="0" r="17" fill="#ffffff" id="SvgjsCircle1001" data-darkreader-inline-fill="" data-darkreader-inline-stroke="" style="--darkreader-inline-fill:#181a1b; --darkreader-inline-stroke:#e5e3e0;"></circle>
          <circle stroke-width="2" cx="0" cy="0" r="8" fill="#000900" id="SvgjsCircle1000" data-darkreader-inline-fill="" style="--darkreader-inline-fill:#e5e3e0;"></circle>
        </g>
      </svg>
    </g>
  </g>
</svg><style>@media (prefers-color-scheme: light) { :root { filter: none; } }
</style></svg>